<?xml version="1.0" encoding="utf-8"?>
<!-- Svg Vector Icons : http://www.onlinewebfonts.com/icon -->
<!DOCTYPE svg PUBLIC "-//W3C//DTD SVG 1.1//EN" "http://www.w3.org/Graphics/SVG/1.1/DTD/svg11.dtd">
<svg version="1.1" xmlns="http://www.w3.org/2000/svg" xmlns:xlink="http://www.w3.org/1999/xlink" x="0px" y="0px" viewBox="0 0 256 256" enable-background="new 0 0 256 256" xml:space="preserve">
<metadata> Svg Vector Icons : http://www.onlinewebfonts.com/icon </metadata>
<g><g><path fill="#000000" d="M201.9,246H54.1c-16.3,0-29.5-13.2-29.5-29.5V69c0-16.3,13.2-29.5,29.5-29.5h22.2V24.7h19.9C102.6,16,114.4,10,128,10c13.6,0,25.4,6,31.8,14.7h19.9v14.8h22.2c16.3,0,29.5,13.2,29.5,29.5v147.5C231.5,232.8,218.2,246,201.9,246z M164.9,39.5h-16.4c0-8.1-9.2-14.7-20.5-14.7c-11.3,0-20.5,6.6-20.5,14.7H91.1V69h73.9V39.5L164.9,39.5z M216.7,69c0-8.1-6.6-14.8-14.8-14.8h-22.2v29.5H76.3V54.3H54.1c-8.2,0-14.8,6.6-14.8,14.8v147.5c0,8.1,6.6,14.8,14.8,14.8h147.8c8.2,0,14.8-6.6,14.8-14.8V69L216.7,69z M179.7,201.8H76.3c-4.1,0-7.4-3.3-7.4-7.4c0-4.1,3.3-7.4,7.4-7.4h103.5c4.1,0,7.4,3.3,7.4,7.4C187.1,198.4,183.8,201.8,179.7,201.8z M179.7,164.9H76.3c-4.1,0-7.4-3.3-7.4-7.4s3.3-7.4,7.4-7.4h103.5c4.1,0,7.4,3.3,7.4,7.4S183.8,164.9,179.7,164.9z M179.7,128H76.3c-4.1,0-7.4-3.3-7.4-7.4c0-4.1,3.3-7.4,7.4-7.4h103.5c4.1,0,7.4,3.3,7.4,7.4C187.1,124.7,183.8,128,179.7,128z"/></g></g>
</svg>